<svg width="136" height="22" viewBox="0 0 136 22" fill="none" xmlns="http://www.w3.org/2000/svg">
<path d="M11.152 18.984H10.648C10.4987 19.3013 10.312 19.6093 10.088 19.908C9.88267 20.188 9.60267 20.44 9.248 20.664C8.912 20.888 8.50133 21.0653 8.016 21.196C7.54933 21.3267 6.98 21.392 6.308 21.392C5.44933 21.392 4.64667 21.2427 3.9 20.944C3.172 20.6267 2.528 20.1693 1.968 19.572C1.42667 18.956 0.997333 18.2093 0.68 17.332C0.381333 16.4547 0.232 15.4467 0.232 14.308V13.804C0.232 12.684 0.390667 11.6853 0.708 10.808C1.044 9.93067 1.492 9.19333 2.052 8.596C2.63067 7.98 3.29333 7.51333 4.04 7.196C4.80533 6.87867 5.608 6.72 6.448 6.72C7.568 6.72 8.45467 6.93467 9.108 7.364C9.76133 7.77467 10.2747 8.36267 10.648 9.128H11.152V1.4H14.68V21H11.152V18.984ZM7.456 18.032C8.55733 18.032 9.444 17.6867 10.116 16.996C10.8067 16.2867 11.152 15.3627 11.152 14.224V13.888C11.152 12.7493 10.8067 11.8347 10.116 11.144C9.444 10.4347 8.55733 10.08 7.456 10.08C6.35467 10.08 5.45867 10.4253 4.768 11.116C4.096 11.788 3.76 12.712 3.76 13.888V14.224C3.76 15.4 4.096 16.3333 4.768 17.024C5.45867 17.696 6.35467 18.032 7.456 18.032ZM21.4365 15.204C21.4552 15.6147 21.5485 15.9973 21.7165 16.352C21.9032 16.688 22.1459 16.9867 22.4445 17.248C22.7619 17.4907 23.1165 17.6867 23.5085 17.836C23.9192 17.9667 24.3485 18.032 24.7965 18.032C25.6739 18.032 26.3459 17.8827 26.8125 17.584C27.2792 17.2667 27.6152 16.8933 27.8205 16.464L30.8445 18.144C30.6765 18.4987 30.4432 18.872 30.1445 19.264C29.8459 19.6373 29.4539 19.9827 28.9685 20.3C28.5019 20.6173 27.9232 20.8787 27.2325 21.084C26.5605 21.2893 25.7672 21.392 24.8525 21.392C23.8072 21.392 22.8552 21.224 21.9965 20.888C21.1379 20.552 20.3912 20.0667 19.7565 19.432C19.1405 18.7973 18.6552 18.0227 18.3005 17.108C17.9645 16.1933 17.7965 15.1573 17.7965 14V13.832C17.7965 12.768 17.9739 11.7973 18.3285 10.92C18.7019 10.0427 19.2059 9.296 19.8405 8.68C20.4752 8.064 21.2125 7.588 22.0525 7.252C22.9112 6.89733 23.8259 6.72 24.7965 6.72C25.9912 6.72 27.0179 6.93467 27.8765 7.364C28.7352 7.77467 29.4445 8.30667 30.0045 8.96C30.5645 9.59467 30.9752 10.304 31.2365 11.088C31.4979 11.8533 31.6285 12.6 31.6285 13.328V15.204H21.4365ZM24.7685 9.912C23.8725 9.912 23.1445 10.1453 22.5845 10.612C22.0245 11.06 21.6605 11.5827 21.4925 12.18H28.0445C27.9325 11.5267 27.5779 10.9853 26.9805 10.556C26.4019 10.1267 25.6645 9.912 24.7685 9.912ZM34.4931 7.112H38.3011L41.5771 19.32H42.0811L45.3571 7.112H49.1651L45.1891 21H38.4691L34.4931 7.112ZM61.1856 2.968C61.1856 2.61333 61.2509 2.27733 61.3816 1.96C61.5309 1.624 61.7269 1.344 61.9696 1.12C62.2123 0.877332 62.4923 0.690666 62.8096 0.559999C63.1269 0.410666 63.4723 0.335999 63.8456 0.335999C64.5736 0.335999 65.1896 0.597332 65.6936 1.12C66.2163 1.624 66.4776 2.24 66.4776 2.968C66.4776 3.34133 66.4029 3.68667 66.2536 4.004C66.1229 4.32133 65.9363 4.60133 65.6936 4.844C65.4696 5.08667 65.1896 5.28267 64.8536 5.432C64.5363 5.56267 64.2003 5.628 63.8456 5.628C63.4723 5.628 63.1269 5.56267 62.8096 5.432C62.4923 5.28267 62.2123 5.08667 61.9696 4.844C61.7269 4.60133 61.5309 4.32133 61.3816 4.004C61.2509 3.68667 61.1856 3.34133 61.1856 2.968ZM51.1056 7.112H54.3816V4.256C54.3816 3.45333 54.6523 2.78133 55.1936 2.24C55.7349 1.68 56.4069 1.4 57.2096 1.4H59.8416V4.76H58.6656C58.1616 4.76 57.9096 5.04 57.9096 5.6V7.112H65.6096V21H62.0816V10.472H57.9096V21H54.3816V10.472H51.1056V7.112ZM73.2901 21H69.7621V7.112H73.2901V9.184H73.7941C74.1115 8.4 74.6248 7.79333 75.3341 7.364C76.0435 6.93467 76.8741 6.72 77.8261 6.72C78.4981 6.72 79.1235 6.832 79.7021 7.056C80.2995 7.26133 80.8221 7.588 81.2701 8.036C81.7181 8.484 82.0635 9.05333 82.3061 9.744C82.5675 10.4347 82.6981 11.256 82.6981 12.208V21H79.1701V13.104C79.1701 12.1147 78.9275 11.34 78.4421 10.78C77.9755 10.2013 77.2941 9.912 76.3981 9.912C75.3528 9.912 74.5688 10.2667 74.0461 10.976C73.5421 11.6667 73.2901 12.6 73.2901 13.776V21ZM96.8747 18.984H96.3707C96.2213 19.3013 96.0347 19.6093 95.8107 19.908C95.6053 20.188 95.3253 20.44 94.9707 20.664C94.6347 20.888 94.224 21.0653 93.7387 21.196C93.272 21.3267 92.7027 21.392 92.0307 21.392C91.172 21.392 90.3693 21.2427 89.6227 20.944C88.8947 20.6267 88.2507 20.1693 87.6907 19.572C87.1493 18.956 86.72 18.2093 86.4027 17.332C86.104 16.4547 85.9547 15.4467 85.9547 14.308V13.804C85.9547 12.684 86.1133 11.6853 86.4307 10.808C86.7667 9.93067 87.2147 9.19333 87.7747 8.596C88.3533 7.98 89.016 7.51333 89.7627 7.196C90.528 6.87867 91.3307 6.72 92.1707 6.72C93.2907 6.72 94.1773 6.93467 94.8307 7.364C95.484 7.77467 95.9973 8.36267 96.3707 9.128H96.8747V1.4H100.403V21H96.8747V18.984ZM93.1787 18.032C94.28 18.032 95.1667 17.6867 95.8387 16.996C96.5293 16.2867 96.8747 15.3627 96.8747 14.224V13.888C96.8747 12.7493 96.5293 11.8347 95.8387 11.144C95.1667 10.4347 94.28 10.08 93.1787 10.08C92.0773 10.08 91.1813 10.4253 90.4907 11.116C89.8187 11.788 89.4827 12.712 89.4827 13.888V14.224C89.4827 15.4 89.8187 16.3333 90.4907 17.024C91.1813 17.696 92.0773 18.032 93.1787 18.032ZM107.159 15.204C107.178 15.6147 107.271 15.9973 107.439 16.352C107.626 16.688 107.869 16.9867 108.167 17.248C108.485 17.4907 108.839 17.6867 109.231 17.836C109.642 17.9667 110.071 18.032 110.519 18.032C111.397 18.032 112.069 17.8827 112.535 17.584C113.002 17.2667 113.338 16.8933 113.543 16.464L116.567 18.144C116.399 18.4987 116.166 18.872 115.867 19.264C115.569 19.6373 115.177 19.9827 114.691 20.3C114.225 20.6173 113.646 20.8787 112.955 21.084C112.283 21.2893 111.49 21.392 110.575 21.392C109.53 21.392 108.578 21.224 107.719 20.888C106.861 20.552 106.114 20.0667 105.479 19.432C104.863 18.7973 104.378 18.0227 104.023 17.108C103.687 16.1933 103.519 15.1573 103.519 14V13.832C103.519 12.768 103.697 11.7973 104.051 10.92C104.425 10.0427 104.929 9.296 105.563 8.68C106.198 8.064 106.935 7.588 107.775 7.252C108.634 6.89733 109.549 6.72 110.519 6.72C111.714 6.72 112.741 6.93467 113.599 7.364C114.458 7.77467 115.167 8.30667 115.727 8.96C116.287 9.59467 116.698 10.304 116.959 11.088C117.221 11.8533 117.351 12.6 117.351 13.328V15.204H107.159ZM110.491 9.912C109.595 9.912 108.867 10.1453 108.307 10.612C107.747 11.06 107.383 11.5827 107.215 12.18H113.767C113.655 11.5267 113.301 10.9853 112.703 10.556C112.125 10.1267 111.387 9.912 110.491 9.912ZM120.524 7.112H126.404V9.128H126.908C127.169 8.36267 127.608 7.77467 128.224 7.364C128.858 6.93467 129.614 6.72 130.492 6.72C131.873 6.72 132.984 7.15867 133.824 8.036C134.664 8.89467 135.084 10.2107 135.084 11.984V12.6L131.444 12.936V12.544C131.444 11.7787 131.248 11.172 130.856 10.724C130.464 10.2573 129.876 10.024 129.092 10.024C128.308 10.024 127.692 10.2947 127.244 10.836C126.796 11.3773 126.572 12.152 126.572 13.16V17.64H129.764V21H120.188V17.64H123.044V10.472H120.524V7.112Z" fill="#151C30"/>
</svg>
